<svg width="1001" height="243" viewBox="0 0 1001 243" fill="none" xmlns="http://www.w3.org/2000/svg">
<g clip-path="url(#clip0_1666_2399)">
<path d="M351.899 154.62V161.02H290.699V157.22V157.02L339.899 87.2198H293.699V80.8198H350.899V84.4198V84.6198L301.699 154.62H351.899Z" fill="#19192C"/>
<path d="M439.698 154.62V161.02H396.898V80.8198H438.298V87.2198H404.498V114.22H435.098V120.62H404.498V154.62H439.698Z" fill="#19192C"/>
<path d="M558.7 80.82V161.82H554.7L554.5 161.62L497.3 101.02C494.7 98.42 492.7 96.22 491.5 94.62L491.7 103.62V161.22H484.1V80.02H488.1L488.3 80.22L544.3 140.02C547.1 143.02 549.5 145.62 551.3 147.82C551.1 145.02 551.1 141.82 551.1 138.62V80.82H558.7Z" fill="#19192C"/>
<path d="M658.3 154.42V161.02H611.5V80.8198H619.1V154.42H658.3Z" fill="#19192C"/>
<path d="M725.299 80.8202L725.099 80.2202H720.499L684.299 159.82L683.699 161.22H691.699L703.899 134.02H740.899L752.899 160.62L753.099 161.22H761.499L725.299 80.8202ZM707.099 127.42L719.499 99.8202H719.699V99.6202C720.499 97.6202 721.499 95.4202 722.499 92.8202C722.499 93.0202 722.699 93.2202 722.699 93.2202C723.299 94.8202 724.499 97.0202 725.899 99.8202L738.499 127.62H707.099V127.42Z" fill="#19192C"/>
<path d="M875.099 80.82V161.82H871.099L870.699 161.62L813.499 101.02L807.699 95.62L807.899 103.82V161.42H800.299V80.02H804.299L804.499 80.22L860.699 140.02C863.499 143.02 865.699 145.62 867.699 147.82C867.499 145.02 867.499 141.82 867.499 138.62V80.82H875.099Z" fill="#19192C"/>
<path d="M997.098 105.02C994.898 99.82 991.498 95.22 986.898 91.42C977.898 83.82 966.698 80.02 953.298 80.02C945.098 80.02 936.698 80.22 928.698 80.82H927.898V160.82H928.698C938.898 161.62 948.098 162.02 956.098 162.02C968.498 162.02 978.898 158.82 987.298 152.62C991.298 149.62 994.698 145.42 996.898 140.42C999.298 135.22 1000.5 129.22 1000.5 122.62C1000.5 116.22 999.298 110.22 997.098 105.02ZM982.498 147.22C975.898 152.62 967.098 155.22 956.098 155.22C947.498 155.22 940.498 155.02 935.498 154.42V87.22C940.698 86.82 946.698 86.62 953.498 86.62C964.498 86.62 973.898 90.02 981.298 96.42C988.698 102.82 992.498 111.62 992.498 122.62C992.498 133.42 989.098 141.82 982.498 147.22Z" fill="#19192C"/>
<path d="M164.897 149.347C158.497 159.147 161.097 172.147 170.897 178.747C180.697 185.147 193.697 182.547 200.297 172.747C206.697 162.947 204.097 149.947 194.297 143.347C184.297 136.947 171.297 139.747 164.897 149.347Z" fill="#1A82FB"/>
<path d="M43.8973 69.9462C37.4973 79.7462 40.0973 92.7462 49.8973 99.3462C59.6973 105.746 72.6973 103.146 79.2973 93.3462C85.8973 83.5462 83.0973 70.5462 73.2973 63.9462C63.4973 57.5462 50.4973 60.3462 43.8973 69.9462Z" fill="#1A82FB"/>
<path fill-rule="evenodd" clip-rule="evenodd" d="M159.897 63.9456C191.697 84.7456 200.497 127.546 179.697 159.146C175.897 164.946 171.297 170.146 166.097 174.346C167.497 175.946 169.097 177.546 170.897 178.746C171.097 178.746 171.297 178.946 171.297 178.946C176.697 174.346 181.297 168.946 185.497 162.946C208.497 127.946 198.697 80.9456 163.697 57.9456C141.839 43.5599 115.569 41.8077 93.1289 51.0949C90.7766 52.0685 90.0043 54.9814 91.6908 56.8885V56.8885C92.6198 57.9391 94.2981 58.3865 95.5923 57.8463C116.125 49.275 139.993 50.805 159.897 63.9456ZM152.541 185.716C154.098 187.576 153.575 190.487 151.339 191.427C128.83 200.883 102.472 199.207 80.4973 184.746C45.4973 161.746 35.6973 114.746 58.6973 79.7456C62.6973 73.5456 67.4973 68.3456 72.8973 63.7456C73.0973 63.7456 73.2973 63.9456 73.2973 63.9456C75.2973 65.1456 76.8973 66.7456 78.0973 68.3456C72.8973 72.5456 68.2973 77.7456 64.4973 83.5456C43.6973 115.346 52.4973 157.946 84.2973 178.746C104.125 191.836 128.071 193.311 148.565 184.843C149.981 184.258 151.557 184.541 152.541 185.716V185.716Z" fill="#1A82FB"/>
</g>
<defs>
<clipPath id="clip0_1666_2399">
<rect width="1000" height="242" fill="white" transform="translate(0.5 0.0200195)"/>
</clipPath>
</defs>
</svg>
